# xmcd CD database file
#
# Track frame offsets:
#	150
#	16035
#	31469
#	52446
#	72748
#	96618
#	113233
#
# Disc length: 1794 seconds
#
# Revision: 0
# Processed by: cddbd v1.4PL0 Copyright (c) Steve Scherf et al.
# Submitted via: CDex 1.51
#
DISCID=68070007
DTITLE=David Lakey and the Superstitions - David Lakey and the Superstitions
DYEAR=1998
DGENRE=Jazz
TTITLE0=Lightnin'
TTITLE1=Walk on the Water
TTITLE2=the Way You Smile
TTITLE3=Para ti Maxi
TTITLE4=(keep each other) Warm
TTITLE5=Dreamin'
TTITLE6=Millionaire's Song
EXTD=YEAR: 1998
EXTT0=
EXTT1=
EXTT2=
EXTT3=
EXTT4=
EXTT5=
EXTT6=
PLAYORDER=
